<svg width="67" height="67" viewBox="0 0 67 67" fill="none" xmlns="http://www.w3.org/2000/svg">
<g>
<path d="M47.1719 58.1C46.5734 57.9481 45.9671 58.3144 45.8186 58.9119L44.7019 63.3785C44.5512 63.9781 44.9163 64.5833 45.5148 64.733C45.6053 64.7565 45.6969 64.7665 45.7862 64.7665C46.2865 64.7665 46.741 64.4281 46.8683 63.9212L47.9849 59.4546C48.1345 58.856 47.7705 58.2497 47.1719 58.1Z" fill="#FBA50E"/>
<path d="M33.5 35.7334C33.6451 35.7334 33.7904 35.7055 33.9266 35.6486L46.21 30.5655C46.7795 30.3298 47.0497 29.6766 46.8142 29.1071C46.5785 28.5364 45.923 28.2684 45.3547 28.5019L33.5 33.4084L2.23338 20.4707V20.1C2.23338 19.4837 1.7331 18.9834 1.11675 18.9834C0.500406 18.9834 0 19.4837 0 20.1V21.2166C0 21.6689 0.272449 22.0765 0.690152 22.2485L33.0735 35.6485C33.2096 35.7054 33.3549 35.7334 33.5 35.7334Z" fill="#FBA50E"/>
<path d="M46.785 47.1734C46.5126 46.6207 45.8448 46.3928 45.2898 46.6665C43.1692 47.715 39.6271 48.9344 34.6178 49.1008V39.0832C34.6178 38.4668 34.1176 37.9665 33.5012 37.9665C32.8849 37.9665 32.3846 38.4668 32.3846 39.0832V49.0908C18.519 48.6486 14.0445 40.249 13.4012 38.8509V31.2665C13.4012 30.6502 12.9009 30.1499 12.2846 30.1499C11.6682 30.1499 11.168 30.6502 11.168 31.2665V39.0832C11.168 39.225 11.1948 39.3657 11.2473 39.4985C11.4416 39.982 16.1941 51.3664 33.5013 51.3664C39.5503 51.3664 43.7892 49.8991 46.2794 48.6685C46.8329 48.395 47.0597 47.7262 46.785 47.1734Z" fill="#FBA50E"/>
<path d="M50.2514 59.1829C49.6339 59.1829 49.1348 59.6831 49.1348 60.2995V63.6495C49.1348 64.2658 49.6339 64.7661 50.2514 64.7661C50.8689 64.7661 51.368 64.2658 51.368 63.6495V60.2995C51.368 59.6831 50.8689 59.1829 50.2514 59.1829Z" fill="#FBA50E"/>
<path d="M65.8834 18.9832C65.2659 18.9832 64.7668 19.4835 64.7668 20.0998V20.4683L51.3668 25.9835V23.9657L66.31 17.7815C66.7275 17.6096 67.0001 17.2019 67.0001 16.7497C67.0001 16.2974 66.7277 15.891 66.3112 15.7179L33.9266 2.318C33.653 2.2052 33.347 2.2052 33.0735 2.318L0.690152 15.718C0.272449 15.8911 0 16.2976 0 16.7498C0 17.2021 0.272449 17.6097 0.690152 17.7817L33.0735 31.1816C33.2098 31.2386 33.3549 31.2666 33.5001 31.2666C33.6454 31.2666 33.7905 31.2387 33.9267 31.1816L45.6362 26.3364C46.2068 26.1019 46.4771 25.4487 46.2414 24.878C46.0057 24.3085 45.3525 24.0393 44.783 24.2738L33.5 28.9416L4.03675 16.7498L33.5 4.55805L62.9632 16.7498L50.1428 22.0551L37.8629 17.4701C37.9276 17.2378 37.9668 16.9988 37.9668 16.7498C37.9668 14.8716 36.0048 13.3998 33.5001 13.3998C30.9955 13.3998 29.0335 14.8716 29.0335 16.7498C29.0335 18.628 30.9955 20.0998 33.5001 20.0998C34.6179 20.0998 35.6151 19.7949 36.39 19.3037L49.1334 24.0619V27.6397V27.6409V51.5722C47.837 52.0355 46.9 53.2627 46.9 54.7167C46.9 56.5637 48.403 58.0667 50.25 58.0667C52.097 58.0667 53.6 56.5637 53.6 54.7167C53.6 53.2629 52.6632 52.0357 51.3666 51.5722V45.234C54.5725 42.8141 55.7216 39.5915 55.7719 39.4486C55.812 39.3313 55.8332 39.2074 55.8332 39.0835V31.2668C55.8332 30.6505 55.3341 30.1502 54.7166 30.1502C54.0991 30.1502 53.6 30.6505 53.6 31.2668V38.877C53.4069 39.3504 52.7357 40.8099 51.3666 42.2504V28.3989L66.3088 22.2494C66.7275 22.0775 67 21.6688 67 21.2166V20.1C67 19.4835 66.5009 18.9832 65.8834 18.9832ZM33.5 17.8664C32.1366 17.8664 31.2666 17.2053 31.2666 16.7498C31.2666 16.2942 32.1364 15.6332 33.5 15.6332C34.8636 15.6332 35.7334 16.2943 35.7334 16.7498C35.7334 17.2055 34.8634 17.8664 33.5 17.8664ZM50.25 55.8332C49.6337 55.8332 49.1334 55.3319 49.1334 54.7166C49.1334 54.1013 49.6337 53.5999 50.25 53.5999C50.8663 53.5999 51.3666 54.1013 51.3666 54.7166C51.3666 55.3317 50.8663 55.8332 50.25 55.8332Z" fill="#FBA50E"/>
<path d="M54.6823 58.912C54.5327 58.3146 53.9252 57.9494 53.329 58.1001C52.7304 58.2497 52.3664 58.8561 52.5161 59.4547L53.6327 63.9213C53.76 64.4282 54.2145 64.7666 54.7148 64.7666C54.8041 64.7666 54.8956 64.7566 54.9862 64.7331C55.5847 64.5836 55.9488 63.9782 55.7991 63.3786L54.6823 58.912Z" fill="#FBA50E"/>
</g>
</svg>
