<svg width="61" height="61" viewBox="0 0 61 61" fill="none" xmlns="http://www.w3.org/2000/svg">
<g clip-path="url(#clip0)">
<path d="M30.5006 9.03711C19.9114 9.03711 11.2969 17.6517 11.2969 28.2408C11.2969 36.2747 16.2571 43.3914 23.7228 46.2019V56.4815C23.7228 57.1062 24.2277 57.6112 24.8524 57.6112H25.9821V59.8704C25.9821 60.4951 26.487 61.0001 27.1117 61.0001H33.8895C34.5142 61.0001 35.0191 60.4951 35.0191 59.8704V57.6112H36.1487C36.7734 57.6112 37.2784 57.1062 37.2784 56.4815V46.2019C44.7441 43.3914 49.7043 36.2747 49.7043 28.2408C49.7043 17.6517 41.0897 9.03711 30.5006 9.03711ZM33.8895 55.3519C33.2648 55.3519 32.7598 55.8569 32.7598 56.4815V58.7408H28.2413V56.4815C28.2413 55.8569 27.7364 55.3519 27.1117 55.3519H25.9821V49.7038H35.0191V55.3519H33.8895ZM35.7963 44.329C35.332 44.4815 35.0191 44.9153 35.0191 45.4021V47.4445H25.9821V45.4021C25.9821 44.9141 25.6692 44.4815 25.2049 44.329C18.2385 42.0381 13.5561 35.5721 13.5561 28.2408C13.5561 18.8976 21.1574 11.2964 30.5006 11.2964C39.8438 11.2964 47.445 18.8976 47.445 28.2408C47.445 35.5721 42.7627 42.0381 35.7963 44.329Z" fill="#17BDBA"/>
<path d="M30.5007 6.77778C31.1254 6.77778 31.6303 6.27283 31.6303 5.64815V1.12963C31.6303 0.504944 31.1254 0 30.5007 0C29.876 0 29.3711 0.504944 29.3711 1.12963V5.64815C29.3711 6.27283 29.876 6.77778 30.5007 6.77778Z" fill="#17BDBA"/>
<path d="M57.611 27.1111H53.0925C52.4678 27.1111 51.9629 27.616 51.9629 28.2407C51.9629 28.8654 52.4678 29.3703 53.0925 29.3703H57.611C58.2357 29.3703 58.7407 28.8654 58.7407 28.2407C58.7407 27.616 58.2357 27.1111 57.611 27.1111Z" fill="#17BDBA"/>
<path d="M7.90791 27.1111H3.38939C2.76471 27.1111 2.25977 27.616 2.25977 28.2407C2.25977 28.8654 2.76471 29.3703 3.38939 29.3703H7.90791C8.5326 29.3703 9.03754 28.8654 9.03754 28.2407C9.03754 27.616 8.5326 27.1111 7.90791 27.1111Z" fill="#17BDBA"/>
<path d="M48.8735 8.27127L45.6789 11.4659C45.2372 11.9075 45.2372 12.6215 45.6789 13.0632C45.8992 13.2834 46.1884 13.3941 46.4776 13.3941C46.7668 13.3941 47.0559 13.2834 47.2762 13.0632L50.4708 9.86857C50.9125 9.42688 50.9125 8.71295 50.4708 8.27127C50.0291 7.82958 49.3141 7.83071 48.8735 8.27127Z" fill="#17BDBA"/>
<path d="M13.7251 43.4184L10.5305 46.613C10.0888 47.0547 10.0888 47.7686 10.5305 48.2103C10.7508 48.4306 11.0399 48.5413 11.3291 48.5413C11.6183 48.5413 11.9075 48.4306 12.1278 48.2103L15.3224 45.0157C15.7641 44.574 15.7641 43.8601 15.3224 43.4184C14.8807 42.9767 14.1668 42.9767 13.7251 43.4184Z" fill="#17BDBA"/>
<path d="M47.2762 43.4184C46.8345 42.9767 46.1206 42.9767 45.6789 43.4184C45.2372 43.8601 45.2372 44.574 45.6789 45.0157L48.8735 48.2103C49.0938 48.4306 49.383 48.5413 49.6722 48.5413C49.9613 48.5413 50.2505 48.4306 50.4708 48.2103C50.9125 47.7686 50.9125 47.0547 50.4708 46.613L47.2762 43.4184Z" fill="#17BDBA"/>
<path d="M13.7251 13.0631C13.9454 13.2834 14.2345 13.3941 14.5237 13.3941C14.8129 13.3941 15.1021 13.2834 15.3224 13.0631C15.7641 12.6214 15.7641 11.9075 15.3224 11.4658L12.1278 8.27121C11.6861 7.82952 10.9722 7.82952 10.5305 8.27121C10.0888 8.71289 10.0888 9.42682 10.5305 9.8685L13.7251 13.0631Z" fill="#17BDBA"/>
<path d="M30.5009 14.6853C23.0261 14.6853 16.9453 20.7661 16.9453 28.2409C16.9453 28.8655 17.4503 29.3705 18.0749 29.3705C18.6996 29.3705 19.2046 28.8655 19.2046 28.2409C19.2046 22.0121 24.2721 16.9446 30.5009 16.9446C31.1255 16.9446 31.6305 16.4396 31.6305 15.8149C31.6305 15.1902 31.1255 14.6853 30.5009 14.6853Z" fill="#17BDBA"/>
</g>
<defs>
<clipPath id="clip0">
<rect width="61" height="61" fill="white"/>
</clipPath>
</defs>
</svg>
