<svg width="27" height="27" viewBox="0 0 27 27" fill="none" xmlns="http://www.w3.org/2000/svg">
<path d="M19.6913 0H7.30864C3.27859 0 0 3.27859 0 7.30864V19.6915C0 23.7214 3.27859 27 7.30864 27H19.6915C23.7214 27 27 23.7214 27 19.6915V7.30864C27 3.27859 23.7214 0 19.6913 0V0ZM25.4171 19.6915C25.4171 22.8486 22.8486 25.4171 19.6913 25.4171H7.30864C4.15138 25.4171 1.58285 22.8486 1.58285 19.6915V7.30864C1.58285 4.15138 4.15138 1.58285 7.30864 1.58285H19.6915C22.8486 1.58285 25.4171 4.15138 25.4171 7.30864V19.6915Z" fill="white"/>
<path d="M13.4998 6.11743C9.42894 6.11743 6.11719 9.42919 6.11719 13.5C6.11719 17.5709 9.42894 20.8826 13.4998 20.8826C17.5706 20.8826 20.8824 17.5709 20.8824 13.5C20.8824 9.42919 17.5706 6.11743 13.4998 6.11743ZM13.4998 19.2998C10.3019 19.2998 7.70004 16.6981 7.70004 13.5C7.70004 10.3022 10.3019 7.70028 13.4998 7.70028C16.6978 7.70028 19.2995 10.3022 19.2995 13.5C19.2995 16.6981 16.6978 19.2998 13.4998 19.2998Z" fill="white"/>
<path d="M21.0584 3.49536C19.8554 3.49536 18.877 4.47404 18.877 5.67683C18.877 6.87983 19.8554 7.85851 21.0584 7.85851C22.2614 7.85851 23.2401 6.87983 23.2401 5.67683C23.2401 4.47383 22.2614 3.49536 21.0584 3.49536ZM21.0584 6.27545C20.7284 6.27545 20.4598 6.00683 20.4598 5.67683C20.4598 5.34662 20.7284 5.07821 21.0584 5.07821C21.3886 5.07821 21.6572 5.34662 21.6572 5.67683C21.6572 6.00683 21.3886 6.27545 21.0584 6.27545Z" fill="white"/>
</svg>
