<svg width="27" height="27" viewBox="0 0 27 27" fill="none" xmlns="http://www.w3.org/2000/svg">
<g clip-path="url(#clip0)">
<path d="M25.0061 0H1.99495C0.89308 0 0 0.865834 0 1.93449V25.0647C0 26.1334 0.893394 27 1.99495 27H25.0061C26.1077 27 26.9998 26.1328 26.9998 25.0647V1.93449C26.9998 0.866148 26.1077 0 25.0061 0ZM8.18555 22.6008H4.10609V10.4107H8.18555V22.6008ZM6.14623 8.74529H6.1188C4.75077 8.74529 3.86397 7.80971 3.86397 6.63842C3.86397 5.44353 4.77682 4.53331 6.17197 4.53331C7.56723 4.53331 8.42548 5.44328 8.45259 6.63842C8.45259 7.80996 7.56755 8.74529 6.14623 8.74529ZM22.8908 22.6008H18.8127V16.0787C18.8127 14.4398 18.2218 13.3216 16.747 13.3216C15.6188 13.3216 14.949 14.076 14.6549 14.8044C14.546 15.0645 14.519 15.4283 14.519 15.7917V22.6006H10.4416C10.4416 22.6006 10.4949 11.5538 10.4416 10.4105H14.5196V12.1387C15.061 11.3083 16.0284 10.1237 18.194 10.1237C20.8782 10.1237 22.8908 11.8649 22.8908 15.6109V22.6008ZM14.4932 12.1774C14.5002 12.166 14.5099 12.1523 14.5196 12.1389V12.1774H14.4932Z" fill="white"/>
</g>
<defs>
<clipPath id="clip0">
<rect width="27" height="27" fill="white"/>
</clipPath>
</defs>
</svg>
