<svg width="18" height="26" viewBox="0 0 18 26" fill="none" xmlns="http://www.w3.org/2000/svg">
<path fill-rule="evenodd" clip-rule="evenodd" d="M17.2642 5.67979C17.3808 5.93696 17.5049 6.21048 17.5748 6.47115C17.577 6.47809 17.583 6.49557 17.5921 6.52173C17.6736 6.75834 18.0001 7.70549 18 7.99653V9.22135C18 11.386 16.6008 13.575 15.2031 15.7617C14.6756 16.5868 14.1484 17.4115 13.6967 18.2346C13.6145 18.3871 13.4827 18.5455 13.3485 18.7066C13.2181 18.8633 13.0854 19.0226 12.9939 19.1819C12.8806 19.3792 12.7601 19.5802 12.6381 19.7835C12.4599 20.0806 12.2789 20.3825 12.1136 20.6845C11.5618 21.6208 11.0042 22.5773 10.4432 23.5394C9.9657 24.3586 9.48578 25.1817 9.00507 26C8.76141 25.6081 8.51743 25.2162 8.27335 24.8241C6.81917 22.4883 5.36158 20.1469 3.94951 17.7725C3.63595 17.243 3.30065 16.7068 2.96284 16.1665C1.64927 14.0657 0.297726 11.9042 0.0388184 9.84543C0.0160376 9.63736 0 9.22141 0 9.17511V8.06556C0.580635 2.63474 4.92969 0 8.87841 0C11.8281 0 15.4812 1.43289 17.1532 5.43112C17.1879 5.51152 17.2256 5.59476 17.2642 5.67979ZM5.89237 9.86858C6.51948 11.4635 7.78998 12.0411 8.9507 12.0411C10.8089 12.0411 12.3461 10.5622 12.3461 8.71327C12.3461 6.86425 10.909 5.38494 9.05082 5.38494C7.54146 5.38494 5.80648 6.30957 5.80648 8.34284V9.05928C5.80648 9.06155 5.80646 9.0649 5.80643 9.06926C5.80598 9.15471 5.80348 9.62702 5.89237 9.86858Z" fill="white"/>
</svg>
