<svg width="26" height="26" viewBox="0 0 26 26" fill="none" xmlns="http://www.w3.org/2000/svg">
<path d="M13.9394 9.42843C13.8551 9.51869 11.875 11.663 11.875 13.751C11.875 15.0427 12.9259 16.0939 14.2177 16.0939C15.5096 16.0939 16.5606 15.0429 16.5606 13.751C16.5606 11.663 14.5805 9.51869 14.4962 9.42843C14.3456 9.26736 14.0899 9.26716 13.9394 9.42843ZM14.2177 15.3322C13.3459 15.3322 12.6367 14.6228 12.6367 13.751C12.6367 12.3944 13.699 10.916 14.2177 10.2751C14.7366 10.9162 15.7986 12.3944 15.7986 13.751C15.7986 14.6228 15.0895 15.3322 14.2177 15.3322Z" fill="#FF0000"/>
<path d="M24.2369 22.0518H23.0463C22.8664 21.688 22.5072 21.4283 22.0848 21.3884V13.899C22.6928 13.8417 23.1701 13.3287 23.1701 12.7062V12.6953C23.1701 12.0726 22.6928 11.5597 22.0848 11.5023V3.6618C22.6928 3.60468 23.1701 3.09171 23.1701 2.46904V2.45813C23.1701 1.79738 22.6325 1.25981 21.9716 1.25981H20.6616V0.711334C20.6616 0.319168 20.3424 0 19.95 0H17.747C17.3546 0 17.0357 0.319168 17.0357 0.711334V1.25981C16.5624 1.25981 7.02919 1.25981 6.46266 1.25981C5.80191 1.25981 5.26434 1.79738 5.26434 2.45813V2.46904C5.26434 3.09171 5.74161 3.60468 6.3494 3.662V11.5023C5.74161 11.5597 5.26434 12.0726 5.26434 12.6953V12.7062C5.26434 13.3287 5.74161 13.8419 6.3494 13.899V21.3884C5.74161 21.4458 5.26434 21.9587 5.26434 22.5814V22.5921C5.26434 23.2531 5.80191 23.7906 6.46266 23.7906H21.9716C22.5567 23.7906 23.0451 23.3689 23.1493 22.8135H24.2369C24.5162 22.8135 24.686 23.0823 24.4763 23.2513C23.7299 23.8535 22.4278 24.5712 20.4648 24.5712C15.0147 24.5712 12.3624 24.2419 7.38883 25.0054C6.54161 25.1355 5.87233 25.2383 5.08562 25.2383C3.00438 25.2383 1.38613 24.4651 1.42342 23.7331C1.45 23.2136 2.2137 22.8135 2.95717 22.8135H4.09816C4.30843 22.8135 4.47902 22.6431 4.47902 22.4326C4.47902 22.2222 4.30843 22.0518 4.09816 22.0518H2.95717C1.15781 22.0518 -0.0276163 23.576 1.10286 24.7656C1.8263 25.5271 3.35251 26 5.08562 26C5.93045 26 6.62493 25.8933 7.50447 25.7582C12.3983 25.007 14.9098 25.3329 20.4648 25.3329C22.65 25.3329 24.1125 24.5234 24.9546 23.8442C25.7199 23.2271 25.2474 22.0518 24.2369 22.0518ZM7.11131 21.3829V13.9045H8.77678C9.32308 16.4367 11.5547 18.3382 14.2171 18.3382C16.8796 18.3382 19.1112 16.4367 19.6575 13.9045H21.3231V21.3829H7.11131ZM19.0239 12.7007C19.0239 15.3891 16.8677 17.5765 14.2171 17.5765C11.5666 17.5765 9.41036 15.3893 9.41036 12.7007C9.41036 10.0122 11.5666 7.82487 14.2171 7.82487C16.8677 7.82487 19.0239 10.0122 19.0239 12.7007ZM22.4084 12.6953V12.7062C22.4084 12.9468 22.2124 13.1428 21.9716 13.1428H19.7685C19.7906 12.8584 19.7921 12.5648 19.7685 12.2587H21.9716C22.2124 12.2585 22.4084 12.4545 22.4084 12.6953ZM22.4084 2.45813V2.46904C22.4084 2.70985 22.2124 2.90564 21.9716 2.90564H21.0307V2.02153H21.9716C22.2124 2.02153 22.4084 2.21732 22.4084 2.45813ZM18.0713 3.2506C17.3735 3.23889 16.8022 3.82843 16.8022 4.52647V6.01123C16.8022 6.2697 16.6076 6.49583 16.3497 6.51309C16.0669 6.53194 15.8306 6.30719 15.8306 6.02829V2.02153H20.269V4.72266C20.269 4.95692 20.1089 5.16759 19.8792 5.21281C19.4369 5.30009 19.2901 4.82878 19.3143 4.86052C19.2861 4.7542 19.3024 4.73019 19.2974 4.49811C19.2974 3.81732 18.7493 3.2621 18.0713 3.2506ZM17.7974 0.761719H19.8999V1.25981H17.7974V0.761719ZM6.02606 2.46904V2.45813C6.02606 2.21732 6.22185 2.02153 6.46266 2.02153H15.0689V6.02829C15.0689 6.71622 15.6287 7.2758 16.3164 7.2758C17.0043 7.2758 17.5639 6.71622 17.5639 6.02829V4.49811C17.5639 4.23012 17.7819 4.01231 18.0497 4.01231C18.3177 4.01231 18.5357 4.23012 18.5357 4.49811C18.5555 4.86349 18.57 5.04004 18.6291 5.20825C18.8184 5.67203 19.2724 5.98386 19.7832 5.98386C20.4711 5.98386 21.0307 5.42427 21.0307 4.73634V3.66736H21.3231V11.4968H19.6575C19.1112 8.96487 16.8796 7.06316 14.2171 7.06316C11.5547 7.06316 9.32308 8.96487 8.77678 11.4968H7.11131V3.66736H13.919C14.1292 3.66736 14.2998 3.49696 14.2998 3.2865C14.2998 3.07623 14.1292 2.90564 13.919 2.90564H6.46266C6.22185 2.90564 6.02606 2.70985 6.02606 2.46904ZM6.02606 12.7062V12.6953C6.02606 12.4545 6.22185 12.2585 6.46266 12.2585H8.6657C8.64388 12.5432 8.64209 12.8365 8.6657 13.1428H6.46266C6.22185 13.1428 6.02606 12.9468 6.02606 12.7062ZM22.4084 22.5923C22.4084 22.8331 22.2124 23.0289 21.9716 23.0289H6.46266C6.22185 23.0289 6.02606 22.8331 6.02606 22.5923V22.5814C6.02606 22.3406 6.22185 22.1446 6.46266 22.1446H21.9716C22.2124 22.1446 22.4084 22.3406 22.4084 22.5814V22.5923Z" fill="#FF0000"/>
</svg>
