<svg width="22" height="22" viewBox="0 0 22 22" fill="none" xmlns="http://www.w3.org/2000/svg">
<path d="M2.56055 2.56535V21.6224C2.56055 21.8249 2.72464 21.9889 2.92707 21.9889H16.8534C17.0557 21.9889 17.2198 21.8249 17.2198 21.6224V6.23027C17.2198 6.22212 17.2159 6.21518 17.2151 6.20718C17.2133 6.17502 17.207 6.14332 17.1964 6.11298C17.1923 6.1012 17.1895 6.08988 17.1843 6.07841C17.1665 6.03856 17.1418 6.00218 17.111 5.97108L13.4462 2.3063C13.4151 2.27536 13.3786 2.2506 13.3384 2.23294C13.3274 2.22826 13.3162 2.22434 13.3047 2.22086C13.2741 2.2103 13.2422 2.20396 13.2098 2.20184C13.2036 2.2029 13.1964 2.19897 13.1887 2.19897H2.92707C2.72464 2.19897 2.56055 2.36291 2.56055 2.56535ZM15.9687 5.86375H13.555V3.4501L15.9687 5.86375ZM3.29344 2.93187H12.8221V6.23027C12.8221 6.43255 12.9862 6.59664 13.1885 6.59664H16.4869V21.256H3.29344V2.93187Z" fill="#4E37D2"/>
<path d="M17.9532 19.0571V19.79H19.0526C19.2551 19.79 19.4192 19.626 19.4192 19.4236V0.366523C19.4192 0.16409 19.2551 0 19.0526 0H5.12629C4.92386 0 4.75977 0.16409 4.75977 0.366523V1.46594H5.49281V0.732894H18.6861V19.0571H17.9532Z" fill="#4E37D2"/>
<path d="M5.49219 7.32971H14.2877V8.06261H5.49219V7.32971Z" fill="#4E37D2"/>
<path d="M5.49219 5.13074H8.42407V5.86378H5.49219V5.13074Z" fill="#4E37D2"/>
<path d="M5.49219 9.52856H11.3559V10.2616H5.49219V9.52856Z" fill="#4E37D2"/>
<path d="M12.0879 9.52856H14.2867V10.2616H12.0879V9.52856Z" fill="#4E37D2"/>
<path d="M5.49219 11.7274H14.2877V12.4604H5.49219V11.7274Z" fill="#4E37D2"/>
<path d="M5.49219 16.1252H14.2877V16.8582H5.49219V16.1252Z" fill="#4E37D2"/>
<path d="M8.79102 13.9263H14.2882V14.6592H8.79102V13.9263Z" fill="#4E37D2"/>
<path d="M5.49219 13.9263H8.05755V14.6592H5.49219V13.9263Z" fill="#4E37D2"/>
<path d="M5.49219 18.3242H6.95813V19.0571H5.49219V18.3242Z" fill="#4E37D2"/>
<path d="M7.69141 18.3242H14.2881V19.0571H7.69141V18.3242Z" fill="#4E37D2"/>
</svg>
