<svg width="23" height="23" viewBox="0 0 23 23" fill="none" xmlns="http://www.w3.org/2000/svg">
<path d="M19.1667 12.2667C20.2235 12.2667 21.0833 11.4069 21.0833 10.35C21.0833 9.29317 20.2235 8.43335 19.1667 8.43335C18.1098 8.43335 17.25 9.29317 17.25 10.35C17.25 11.4069 18.1098 12.2667 19.1667 12.2667ZM19.1667 9.20002C19.8007 9.20002 20.3167 9.71598 20.3167 10.35C20.3167 10.9841 19.8007 11.5 19.1667 11.5C18.5326 11.5 18.0167 10.9841 18.0167 10.35C18.0167 9.71598 18.5326 9.20002 19.1667 9.20002Z" fill="#FBA50E"/>
<path d="M16.1009 16.4833H6.90091C6.68893 16.4833 6.51758 16.6547 6.51758 16.8667C6.51758 17.0787 6.68893 17.25 6.90091 17.25H16.1009C16.3129 17.25 16.4842 17.0787 16.4842 16.8667C16.4842 16.6547 16.3129 16.4833 16.1009 16.4833Z" fill="#FBA50E"/>
<path d="M16.1009 18.4H6.90091C6.68893 18.4 6.51758 18.5714 6.51758 18.7834C6.51758 18.9953 6.68893 19.1667 6.90091 19.1667H16.1009C16.3129 19.1667 16.4842 18.9953 16.4842 18.7834C16.4842 18.5714 16.3129 18.4 16.1009 18.4Z" fill="#FBA50E"/>
<path d="M19.55 6.51667V0H3.45V6.51667H0V19.55H2.3V20.7H3.45V23H19.55V20.7H20.7V19.55H23V6.51667H19.55ZM4.21667 0.766667H18.7833V6.51667H4.21667V0.766667ZM3.45 7.28333H19.55H22.2333V13.4167H0.766667V7.28333H3.45ZM3.06667 19.9333V19.1667V18.7833V17.25C3.06667 17.038 2.89532 16.8667 2.68333 16.8667C2.47135 16.8667 2.3 17.038 2.3 17.25V18.7833H0.766667V14.1833H3.45V19.9333H3.06667ZM18.7833 22.2333H4.21667V20.7V14.1833H18.7833V20.7V22.2333ZM20.7 18.7833V17.25C20.7 17.038 20.5287 16.8667 20.3167 16.8667C20.1047 16.8667 19.9333 17.038 19.9333 17.25V18.7833V19.1667V19.9333H19.55V14.1833H22.2333V18.7833H20.7Z" fill="#FBA50E"/>
</svg>
