<svg width="23" height="23" viewBox="0 0 23 23" fill="none" xmlns="http://www.w3.org/2000/svg">
<g clip-path="url(#clip0)">
<path d="M5.49823 8.52446L6.24435 10.4054C6.33876 10.6435 6.5653 10.7972 6.82132 10.7972C7.07751 10.7972 7.30405 10.6435 7.39846 10.4054L8.14458 8.52446C8.37727 8.38197 8.53344 8.12613 8.53344 7.83379V6.24274C8.53344 6.05656 8.3827 5.90583 8.19652 5.90583C8.01034 5.90583 7.85961 6.05656 7.85961 6.24274V7.83379C7.85961 7.90889 7.79855 7.97013 7.72327 7.97013H5.91955C5.84427 7.97013 5.7832 7.90889 5.7832 7.83379V2.08642C5.7832 2.01131 5.84427 1.95025 5.91955 1.95025H7.72327C7.79855 1.95025 7.85961 2.01131 7.85961 2.08642V4.77541C7.85961 4.96159 8.01034 5.11233 8.19652 5.11233C8.3827 5.11233 8.53344 4.96159 8.53344 4.77541V2.08642C8.53344 1.86093 8.44061 1.65685 8.29146 1.50998V0.815796C8.29146 0.369209 7.92805 0.00579834 7.48146 0.00579834H6.16135C5.71477 0.00579834 5.35136 0.369034 5.35136 0.815796V1.50998C5.2022 1.65703 5.10938 1.86111 5.10938 2.08659V7.83379C5.10938 8.12613 5.26555 8.38197 5.49823 8.52446ZM6.82132 10.0327L6.2705 8.64378H7.37231L6.82132 10.0327ZM6.16135 0.679626H7.48146C7.55656 0.679626 7.61763 0.740692 7.61763 0.815796V1.27642H6.02518V0.815796C6.02518 0.740692 6.08625 0.679626 6.16135 0.679626Z" fill="#17BDBA"/>
<path d="M1.41812 17.7605H3.36099C3.83285 17.7605 4.21679 17.3767 4.21679 16.9048V3.31598C4.21679 3.03539 4.08044 2.78657 3.87093 2.63039L2.99214 0.415008C2.89352 0.166359 2.65698 0.00579834 2.38956 0.00579834C2.12213 0.00579834 1.88576 0.166359 1.78715 0.415008L0.908363 2.63039C0.69902 2.78657 0.5625 3.03539 0.5625 3.31598V16.9048C0.5625 17.3767 0.946266 17.7605 1.41812 17.7605ZM3.36099 3.13418C3.46136 3.13418 3.54296 3.21578 3.54296 3.31598V15.1057C3.51769 15.0997 3.49155 15.0962 3.46452 15.0962H2.72647V3.13418H3.36099ZM2.05264 15.0962H1.31459C1.28757 15.0962 1.26142 15.0997 1.23633 15.1057V3.31598C1.23633 3.21578 1.31792 3.13418 1.41812 3.13418H2.05264V15.0962ZM3.36099 17.0866H1.41812C1.31792 17.0866 1.23633 17.0052 1.23633 16.9048V15.7604C1.2616 15.7665 1.28757 15.77 1.31459 15.77H3.46452C3.49155 15.77 3.51769 15.7664 3.54296 15.7604V16.9048C3.54296 17.0052 3.46136 17.0866 3.36099 17.0866ZM2.38956 0.723495L3.07848 2.46036H1.70064L2.38956 0.723495Z" fill="#17BDBA"/>
<path d="M5.76205 17.7608H7.88408C8.35594 17.7608 8.7397 17.3769 8.7397 16.905V14.0485C8.7397 13.777 8.61231 13.5352 8.41472 13.3783V12.8319C8.41472 12.3602 8.03078 11.9763 7.55892 11.9763H6.0872C5.61535 11.9763 5.23141 12.36 5.23141 12.8319V13.3783C5.03365 13.5352 4.90625 13.777 4.90625 14.0485V16.905C4.90625 17.3769 5.29019 17.7608 5.76205 17.7608ZM8.06587 16.905C8.06587 17.0054 7.98445 17.087 7.88408 17.087H5.76205C5.66185 17.087 5.58008 17.0054 5.58008 16.905V14.0485C5.58008 13.9481 5.66167 13.8665 5.76205 13.8665H7.88408C7.98428 13.8665 8.06587 13.9481 8.06587 14.0485V16.905ZM6.0872 12.6501H7.55892C7.6593 12.6501 7.74089 12.7317 7.74089 12.8319V13.1928H5.90524V12.8319C5.90524 12.7317 5.98683 12.6501 6.0872 12.6501Z" fill="#17BDBA"/>
<path d="M10.3578 17.4858H11.368C11.474 17.6997 11.694 17.8473 11.9484 17.8473H12.4935C12.7479 17.8473 12.968 17.6997 13.0739 17.4858H21.0223C21.7804 17.4858 22.3968 16.8692 22.3968 16.1113V1.73598C22.3968 0.978104 21.7804 0.361481 21.0223 0.361481H13.0739C12.968 0.147751 12.7479 0 12.4935 0H11.9484C11.694 0 11.474 0.147751 11.368 0.361481H10.3578C9.88589 0.361481 9.50195 0.745422 9.50195 1.21728V4.77558C9.50195 4.96159 9.65286 5.1125 9.83887 5.1125C10.025 5.1125 10.1758 4.96159 10.1758 4.77558V1.21728C10.1758 1.11691 10.2574 1.03531 10.3578 1.03531H11.3002V16.812H10.3578C10.2576 16.812 10.1758 16.7304 10.1758 16.63V6.24274C10.1758 6.05656 10.025 5.90582 9.83887 5.90582C9.65286 5.90582 9.50195 6.05656 9.50195 6.24274V16.63C9.50195 17.1019 9.88589 17.4858 10.3578 17.4858ZM21.723 1.73598V16.1113C21.723 16.4977 21.4087 16.812 21.0223 16.812H13.1417V1.03531H21.0225C21.4087 1.03531 21.723 1.34976 21.723 1.73598ZM11.9741 0.673828H12.4679V17.1735H11.9741V0.673828Z" fill="#17BDBA"/>
<path d="M18.8721 15.7371H20.0353C20.2213 15.7371 20.3722 15.5862 20.3722 15.4001C20.3722 15.214 20.2213 15.0632 20.0353 15.0632H18.8721C18.6859 15.0632 18.5352 15.214 18.5352 15.4001C18.5352 15.5862 18.6859 15.7371 18.8721 15.7371Z" fill="#17BDBA"/>
<path d="M19.999 14.867H20.0009C20.187 14.8661 20.337 14.7145 20.3361 14.5283C20.3351 14.3429 20.1843 14.1932 19.9992 14.1932C19.9985 14.1932 19.998 14.1932 19.9973 14.1932H19.9932C19.8072 14.1942 19.6591 14.3458 19.6602 14.532C19.6612 14.7175 19.8139 14.867 19.999 14.867Z" fill="#17BDBA"/>
<path d="M21.834 18.4092H1.12533C0.653473 18.4092 0.269531 18.7931 0.269531 19.265V22.1442C0.269531 22.616 0.653473 23 1.12533 23H17.3746C17.5608 23 17.7115 22.8491 17.7115 22.6631C17.7115 22.4771 17.5608 22.3261 17.3746 22.3261H1.12533C1.02496 22.3261 0.943359 22.2446 0.943359 22.1442V19.265C0.943359 19.1646 1.02496 19.083 1.12533 19.083H2.38016V19.5912C2.38016 19.7772 2.53107 19.9281 2.71707 19.9281C2.90325 19.9281 3.05399 19.7772 3.05399 19.5912V19.083H3.97348V19.5912C3.97348 19.7772 4.12421 19.9281 4.31039 19.9281C4.4964 19.9281 4.64731 19.7772 4.64731 19.5912V19.083H5.56663V19.5912C5.56663 19.7772 5.71736 19.9281 5.90354 19.9281C6.08972 19.9281 6.24046 19.7772 6.24046 19.5912V19.083H7.15977V19.5912C7.15977 19.7772 7.31051 19.9281 7.49669 19.9281C7.68287 19.9281 7.8336 19.7772 7.8336 19.5912V19.083H8.75292V19.5912C8.75292 19.7772 8.90383 19.9281 9.08984 19.9281C9.27602 19.9281 9.42675 19.7772 9.42675 19.5912V19.083H10.3462V19.5912C10.3462 19.7772 10.497 19.9281 10.6832 19.9281C10.8692 19.9281 11.0201 19.7772 11.0201 19.5912V19.083H11.9394V19.5912C11.9394 19.7772 12.0901 19.9281 12.2763 19.9281C12.4623 19.9281 12.6132 19.7772 12.6132 19.5912V19.083H13.5325V19.5912C13.5325 19.7772 13.6833 19.9281 13.8695 19.9281C14.0556 19.9281 14.2064 19.7772 14.2064 19.5912V19.083H15.1257V19.5912C15.1257 19.7772 15.2766 19.9281 15.4626 19.9281C15.6488 19.9281 15.7995 19.7772 15.7995 19.5912V19.083H16.7188V19.5912C16.7188 19.7772 16.8697 19.9281 17.0557 19.9281C17.2419 19.9281 17.3927 19.7772 17.3927 19.5912V19.083H18.3122V19.5912C18.3122 19.7772 18.4629 19.9281 18.6491 19.9281C18.8351 19.9281 18.986 19.7772 18.986 19.5912V19.083H19.9053V19.5912C19.9053 19.7772 20.056 19.9281 20.2422 19.9281C20.4284 19.9281 20.5791 19.7772 20.5791 19.5912V19.083H21.8341C21.9343 19.083 22.0159 19.1646 22.0159 19.265V22.1442C22.0159 22.2446 21.9343 22.3261 21.8341 22.3261H18.8419C18.6557 22.3261 18.505 22.4771 18.505 22.6631C18.505 22.8491 18.6557 23 18.8419 23H21.8341C22.306 23 22.6898 22.616 22.6898 22.1442V19.265C22.6898 18.7931 22.3058 18.4092 21.834 18.4092Z" fill="#17BDBA"/>
</g>
<defs>
<clipPath id="clip0">
<rect width="23" height="23" fill="white"/>
</clipPath>
</defs>
</svg>
