<svg width="27" height="27" viewBox="0 0 27 27" fill="none" xmlns="http://www.w3.org/2000/svg">
<g clip-path="url(#clip0)">
<path d="M27 5.1288C26.0062 5.56914 24.9399 5.86777 23.8196 6.0011C24.9635 5.31608 25.8392 4.22955 26.2542 2.93885C25.1812 3.57321 23.9967 4.03385 22.7347 4.28355C21.7241 3.20545 20.2866 2.53394 18.6922 2.53394C15.6334 2.53394 13.1532 5.0141 13.1532 8.07127C13.1532 8.50486 13.2021 8.92834 13.2966 9.3333C8.694 9.10212 4.61272 6.89699 1.88118 3.54621C1.40369 4.36283 1.13206 5.31436 1.13206 6.33008C1.13206 8.2518 2.11063 9.94742 3.59537 10.9394C2.68765 10.9091 1.83393 10.6594 1.08653 10.2443V10.3135C1.08653 12.9961 2.99643 15.235 5.52887 15.7446C5.06488 15.8694 4.57562 15.9386 4.06946 15.9386C3.71179 15.9386 3.36591 15.9032 3.02678 15.8357C3.732 18.0374 5.7769 19.6386 8.19971 19.6825C6.30499 21.1672 3.91593 22.0496 1.32106 22.0496C0.873971 22.0496 0.433588 22.0226 0 21.9737C2.45149 23.5478 5.36188 24.4656 8.48991 24.4656C18.6788 24.4656 24.2482 16.0263 24.2482 8.70736L24.2296 7.99032C25.3178 7.21415 26.2593 6.23898 27 5.1288Z" fill="white"/>
</g>
<defs>
<clipPath id="clip0">
<rect width="27" height="27" fill="white"/>
</clipPath>
</defs>
</svg>
